<svg id="Layer_1" data-name="Layer 1" xmlns="http://www.w3.org/2000/svg" viewBox="0 0 64.33 46.83"><defs><style>.cls-1{fill:#223e7c;}</style></defs><path class="cls-1" d="M43.65,26.49a24.61,24.61,0,0,0,3.77,1.27c1.18.28,2.53.54,4,.78a41.56,41.56,0,0,0-5.17,5.84,1.88,1.88,0,0,0-.26,1.1A2.09,2.09,0,0,0,46.68,37a2.17,2.17,0,0,0,1.65.69A2.07,2.07,0,0,0,49.81,37a8.19,8.19,0,0,0,1.35-1.79c.47-.79,1.38-2.42,2.75-4.9a33.32,33.32,0,0,0,3.29,5.71c.86,1.06,1.62,1.59,2.31,1.59A2.27,2.27,0,0,0,61.18,37a2.06,2.06,0,0,0,.64-1.51,2.17,2.17,0,0,0-.28-1.14,11.52,11.52,0,0,0-1-1.31c-.48-.55-.86-1-1.13-1.4,0-.05-.42-.46-1.16-1.23s-1.35-1.4-1.86-1.86a34.52,34.52,0,0,0,7.65-2,1.59,1.59,0,0,0,.71-.74,2.13,2.13,0,0,0,.34-1.11,2.05,2.05,0,0,0-.69-1.58,2.31,2.31,0,0,0-1.62-.63,4.34,4.34,0,0,0-1.51.37c-.63.26-1.48.65-2.53,1.19s-2.18,1.08-3.34,1.62c.14-1.17.27-2.21.39-3.11s.2-1.68.27-2.32.09-1.06.09-1.28a2.78,2.78,0,0,0-.63-1.9,2.19,2.19,0,0,0-3.23,0,2.47,2.47,0,0,0-.64,1.71c0,.54.08,1.54.23,3s.35,2.76.58,3.9L49,24c-1-.49-1.81-.87-2.46-1.13A4.52,4.52,0,0,0,45,22.48a2.26,2.26,0,0,0-1.57.63,2.05,2.05,0,0,0-.69,1.58A2.38,2.38,0,0,0,43,25.75,1.67,1.67,0,0,0,43.65,26.49Z" transform="translate(-14.57 -13.37)"/><path class="cls-1" d="M69.89,52.1c-.75,2-1.46,3.66-2.14,5.09a14.82,14.82,0,0,0-1,2.35c0,.44.41.66,1.22.66a4.38,4.38,0,0,0,2.6-.69,12.57,12.57,0,0,0,2.59-3.36,41.94,41.94,0,0,0,4.34-9.39,33.23,33.23,0,0,0,1.44-10,37,37,0,0,0-.37-5.26,32.63,32.63,0,0,0-1.09-4.83,37.41,37.41,0,0,0-1.8-4.63,50.47,50.47,0,0,0-2.52-4.7A11.92,11.92,0,0,0,70.58,14a4.6,4.6,0,0,0-2.64-.65c-.81,0-1.22.22-1.22.66a16.86,16.86,0,0,0,1,2.35q1,2.16,2.13,5.08a48.17,48.17,0,0,1,1.93,6.93,43.07,43.07,0,0,1,0,16.78A46.73,46.73,0,0,1,69.89,52.1Z" transform="translate(-14.57 -13.37)"/><path class="cls-1" d="M20.35,56.15a12.57,12.57,0,0,0,2.59,3.36,4.36,4.36,0,0,0,2.6.69c.81,0,1.22-.22,1.22-.66a14.82,14.82,0,0,0-1-2.35c-.68-1.43-1.4-3.12-2.14-5.09a45.55,45.55,0,0,1-1.93-6.93,43.07,43.07,0,0,1,0-16.78,46.91,46.91,0,0,1,1.93-6.93q1.11-2.92,2.13-5.08a16.86,16.86,0,0,0,1-2.35c0-.44-.41-.66-1.22-.66a4.61,4.61,0,0,0-2.65.65,12,12,0,0,0-2.54,3.35,50.47,50.47,0,0,0-2.52,4.7A37.41,37.41,0,0,0,16,26.7a31.41,31.41,0,0,0-1.09,4.83,37,37,0,0,0-.37,5.26,33.55,33.55,0,0,0,1.43,10A42.45,42.45,0,0,0,20.35,56.15Z" transform="translate(-14.57 -13.37)"/><path class="cls-1" d="M35.69,55.78A4.59,4.59,0,1,0,31,51.19,4.54,4.54,0,0,0,35.69,55.78Z" transform="translate(-14.57 -13.37)"/></svg>